<svg xmlns="http://www.w3.org/2000/svg" xmlns:xlink="http://www.w3.org/1999/xlink" width="500" zoomAndPan="magnify" viewBox="0 0 375 374.999991" height="500" preserveAspectRatio="xMidYMid meet" version="1.0"><defs><clipPath id="f016ac6a2e"><path d="M 18.351562 12.269531 L 356.617188 12.269531 L 356.617188 350.53125 L 18.351562 350.53125 Z M 18.351562 12.269531 " clip-rule="nonzero"/></clipPath><clipPath id="bf13f8e3e9"><path d="M 187.484375 12.269531 C 94.074219 12.269531 18.351562 87.992188 18.351562 181.398438 C 18.351562 274.808594 94.074219 350.53125 187.484375 350.53125 C 280.894531 350.53125 356.617188 274.808594 356.617188 181.398438 C 356.617188 87.992188 280.894531 12.269531 187.484375 12.269531 Z M 187.484375 12.269531 " clip-rule="nonzero"/></clipPath><clipPath id="d76ed64f4e"><path d="M 71.425781 98.691406 L 291.175781 98.691406 L 291.175781 318.441406 L 71.425781 318.441406 Z M 71.425781 98.691406 " clip-rule="nonzero"/></clipPath></defs><rect x="-37.5" width="450" fill="#ffffff" y="-37.499999" height="449.999989" fill-opacity="1"/><rect x="-37.5" width="450" fill="#ffffff" y="-37.499999" height="449.999989" fill-opacity="1"/><g clip-path="url(#f016ac6a2e)"><g clip-path="url(#bf13f8e3e9)"><path fill="#1d4ed8" d="M 18.351562 12.269531 L 356.617188 12.269531 L 356.617188 350.53125 L 18.351562 350.53125 Z M 18.351562 12.269531 " fill-opacity="1" fill-rule="nonzero"/></g></g><g clip-path="url(#d76ed64f4e)"><path fill="#ffffff" d="M 287.699219 311.277344 L 284.03125 311.277344 L 284.03125 248.964844 C 284.03125 248.480469 283.941406 248.011719 283.753906 247.5625 C 283.566406 247.113281 283.300781 246.71875 282.960938 246.375 C 282.617188 246.03125 282.21875 245.765625 281.769531 245.582031 C 281.320312 245.394531 280.851562 245.300781 280.367188 245.300781 L 258.375 245.300781 C 257.890625 245.300781 257.421875 245.394531 256.972656 245.582031 C 256.523438 245.765625 256.128906 246.03125 255.785156 246.375 C 255.441406 246.71875 255.175781 247.113281 254.988281 247.5625 C 254.804688 248.011719 254.710938 248.480469 254.710938 248.964844 L 254.710938 311.277344 L 240.050781 311.277344 L 240.050781 102.355469 C 240.050781 101.871094 239.957031 101.402344 239.769531 100.953125 C 239.585938 100.503906 239.320312 100.109375 238.976562 99.765625 C 238.632812 99.421875 238.234375 99.15625 237.789062 98.972656 C 237.339844 98.785156 236.871094 98.691406 236.382812 98.691406 L 214.394531 98.691406 C 213.90625 98.691406 213.441406 98.785156 212.992188 98.972656 C 212.542969 99.15625 212.144531 99.421875 211.800781 99.765625 C 211.457031 100.109375 211.191406 100.503906 211.007812 100.953125 C 210.820312 101.402344 210.726562 101.871094 210.726562 102.355469 L 210.726562 311.277344 L 196.066406 311.277344 L 196.066406 142.675781 C 196.066406 142.1875 195.972656 141.722656 195.789062 141.273438 C 195.601562 140.824219 195.335938 140.425781 194.992188 140.082031 C 194.648438 139.738281 194.253906 139.476562 193.804688 139.289062 C 193.355469 139.101562 192.886719 139.007812 192.402344 139.007812 L 170.410156 139.007812 C 169.925781 139.007812 169.457031 139.101562 169.007812 139.289062 C 168.558594 139.476562 168.164062 139.738281 167.820312 140.082031 C 167.476562 140.425781 167.210938 140.824219 167.023438 141.273438 C 166.839844 141.722656 166.746094 142.1875 166.746094 142.675781 L 166.746094 311.277344 L 152.085938 311.277344 L 152.085938 212.3125 C 152.085938 211.828125 151.992188 211.359375 151.804688 210.910156 C 151.621094 210.460938 151.355469 210.066406 151.011719 209.722656 C 150.667969 209.378906 150.269531 209.113281 149.820312 208.929688 C 149.371094 208.742188 148.90625 208.648438 148.417969 208.648438 L 126.425781 208.648438 C 125.941406 208.648438 125.472656 208.742188 125.023438 208.929688 C 124.574219 209.113281 124.179688 209.378906 123.835938 209.722656 C 123.492188 210.066406 123.226562 210.460938 123.042969 210.910156 C 122.855469 211.359375 122.761719 211.828125 122.761719 212.3125 L 122.761719 311.277344 L 108.101562 311.277344 L 108.101562 175.660156 C 108.101562 175.175781 108.007812 174.707031 107.824219 174.257812 C 107.636719 173.808594 107.371094 173.414062 107.027344 173.070312 C 106.683594 172.726562 106.289062 172.460938 105.839844 172.277344 C 105.390625 172.089844 104.921875 171.996094 104.4375 171.996094 L 82.445312 171.996094 C 81.957031 171.996094 81.492188 172.089844 81.042969 172.277344 C 80.59375 172.460938 80.195312 172.726562 79.851562 173.070312 C 79.507812 173.414062 79.246094 173.808594 79.058594 174.257812 C 78.871094 174.707031 78.78125 175.175781 78.78125 175.660156 L 78.78125 311.277344 L 75.113281 311.277344 C 74.628906 311.277344 74.160156 311.367188 73.710938 311.554688 C 73.261719 311.742188 72.867188 312.003906 72.523438 312.347656 C 72.179688 312.691406 71.914062 313.089844 71.726562 313.539062 C 71.542969 313.988281 71.449219 314.453125 71.449219 314.941406 C 71.449219 315.425781 71.542969 315.894531 71.726562 316.34375 C 71.914062 316.792969 72.179688 317.1875 72.523438 317.53125 C 72.867188 317.875 73.261719 318.140625 73.710938 318.328125 C 74.160156 318.511719 74.628906 318.605469 75.113281 318.605469 L 287.699219 318.605469 C 288.183594 318.605469 288.652344 318.511719 289.101562 318.328125 C 289.550781 318.140625 289.945312 317.875 290.289062 317.53125 C 290.632812 317.1875 290.898438 316.792969 291.085938 316.34375 C 291.269531 315.894531 291.363281 315.425781 291.363281 314.941406 C 291.363281 314.453125 291.269531 313.988281 291.085938 313.539062 C 290.898438 313.089844 290.632812 312.691406 290.289062 312.347656 C 289.945312 312.003906 289.550781 311.742188 289.101562 311.554688 C 288.652344 311.367188 288.183594 311.277344 287.699219 311.277344 Z M 287.699219 311.277344 " fill-opacity="1" fill-rule="nonzero"/></g><path fill="#1d4ed8" d="M 457.886719 -88.96875 C 461.484375 -88.984375 465.082031 -89.042969 468.675781 -88.9375 C 480.738281 -88.589844 482.566406 -86.542969 482.523438 -74.078125 C 482.265625 -2.667969 482.480469 444.773438 482.4375 452.984375 C 482.402344 460.378906 481.074219 461.828125 473.601562 462.722656 C 467.5 463.449219 461.328125 463.894531 455.183594 463.914062 C 421.785156 464.027344 -31.738281 464.003906 -74.882812 463.9375 C -82.582031 463.925781 -90.292969 463.679688 -97.972656 463.199219 C -103.058594 462.878906 -105.023438 460.609375 -105.375 455.214844 C -105.640625 451.117188 -105.566406 101.722656 -105.535156 -68.859375 C -105.53125 -87.636719 -107.59375 -88.25 -86.082031 -88.234375 C -20.3125 -88.183594 406.535156 -88.722656 457.886719 -88.96875 Z M 367.4375 184.722656 C 368.070312 168.429688 365.804688 151.746094 360.722656 135.402344 C 353.167969 111.09375 342.519531 88.511719 324.625 69.945312 C 318.570312 63.660156 312.460938 57.398438 305.996094 51.539062 C 277.777344 25.964844 245.230469 9.8125 206.796875 6.929688 C 186.238281 5.386719 165.566406 5.414062 145.457031 9.898438 C 114.308594 16.847656 86.617188 31.261719 63.433594 53.402344 C 15.507812 99.175781 -2.433594 155.273438 9.25 220.101562 C 15.859375 256.808594 33.269531 288.734375 60.117188 315.050781 C 101.453125 355.570312 150.796875 373.582031 208.621094 367.421875 C 243.34375 363.722656 273.996094 350.304688 300.625 327.929688 C 325.765625 306.808594 346.164062 282.082031 357.167969 250.523438 C 364.511719 229.453125 368.320312 207.863281 367.4375 184.722656 Z M 367.4375 184.722656 " fill-opacity="1" fill-rule="nonzero"/></svg>